<svg xmlns="http://www.w3.org/2000/svg" width="16" height="16" viewBox="0 0 16 16">
    <g fill="none" fill-rule="evenodd">
        <path fill="#000" d="M8 16A8 8 0 1 1 8 0a8 8 0 0 1 0 16zm-.72-7.34c.041.423.11.739.205.946.096.207.267.311.513.311a.537.537 0 0 0 .52-.321c.104-.214.173-.522.205-.923l.294-3.37c.032-.31.047-.615.047-.916 0-.51-.066-.901-.198-1.173-.132-.27-.394-.406-.786-.406-.323 0-.584.106-.783.317C7.1 3.337 7 3.632 7 4.011c0 .278.02.736.062 1.374l.218 3.274zm.76 4.497c.273 0 .512-.09.717-.273.205-.183.307-.433.307-.752a.971.971 0 0 0-.304-.721 1.013 1.013 0 0 0-.735-.298.99.99 0 0 0-.728.298.982.982 0 0 0-.297.72c0 .324.104.576.311.756.207.18.45.27.728.27z"/>
    </g>
</svg>
