<svg xmlns="http://www.w3.org/2000/svg" width="16" height="16" viewBox="0 0 16 16">
    <g fill="none" fill-rule="evenodd">
        <path fill="#000" d="M8 16A8 8 0 1 1 8 0a8 8 0 0 1 0 16zM4.615 5.665c0 .21.088.404.263.585.176.18.391.27.646.27.433 0 .727-.258.882-.773.164-.492.365-.865.602-1.118.237-.253.606-.379 1.107-.379.429 0 .778.125 1.05.376.27.25.406.558.406.923 0 .187-.044.36-.133.52a1.96 1.96 0 0 1-.328.433c-.13.13-.34.323-.632.578-.333.292-.597.544-.793.755a2.525 2.525 0 0 0-.472.739c-.119.28-.178.612-.178.994 0 .306.081.536.243.69a.832.832 0 0 0 .598.233c.456 0 .727-.237.813-.71.05-.224.088-.38.113-.469.025-.089.06-.178.106-.267.046-.088.115-.186.209-.294.093-.107.217-.23.372-.372.56-.501.95-.858 1.166-1.07.216-.212.403-.464.56-.755.158-.292.236-.631.236-1.019a2.44 2.44 0 0 0-.413-1.367c-.276-.42-.667-.75-1.173-.995-.506-.243-1.089-.365-1.75-.365-.71 0-1.333.145-1.866.437-.533.292-.939.66-1.217 1.104-.278.444-.417.883-.417 1.316zm3.336 7.492c.27 0 .506-.09.711-.273.205-.183.308-.433.308-.752a.985.985 0 0 0-.294-.725.985.985 0 0 0-.725-.294c-.291 0-.538.098-.738.294-.2.196-.3.438-.3.725 0 .323.103.575.31.755.208.18.45.27.728.27z"/>
    </g>
</svg>
