<svg xmlns="http://www.w3.org/2000/svg" width="16" height="16" viewBox="0 0 16 16">
    <g fill="none" fill-rule="evenodd">
        <path fill="#000" d="M8 16A8 8 0 1 1 8 0a8 8 0 0 1 0 16zm.83-9.357c0-.333-.089-.593-.267-.78a.894.894 0 0 0-.676-.28.861.861 0 0 0-.667.28c-.17.187-.256.465-.256.834v5.34c0 .364.085.644.256.84.171.196.393.294.667.294a.883.883 0 0 0 .676-.287c.178-.192.267-.474.267-.848V6.643zm-.923-1.928c.25 0 .467-.081.65-.243.182-.162.273-.386.273-.673 0-.296-.093-.522-.28-.677a.978.978 0 0 0-.643-.232c-.25 0-.47.085-.66.256a.841.841 0 0 0-.283.653c0 .291.092.517.277.677.184.16.406.239.666.239z"/>
    </g>
</svg>
