<svg xmlns="http://www.w3.org/2000/svg" width="24" height="24" viewBox="0 0 24 24">
    <g fill="none" fill-rule="evenodd">
        <g fill="#000">
            <path d="M21.9 5.657L17.302 1.06a.5.5 0 1 1 .707-.707l4.95 4.95a.5.5 0 0 1 0 .706l-4.95 4.95a.5.5 0 0 1-.707-.707L21.9 5.657zM1.414 18.357l4.596 4.596a.5.5 0 0 1-.707.707l-4.95-4.95a.5.5 0 0 1 0-.707l4.95-4.95a.5.5 0 0 1 .707.708l-4.596 4.596z"/>
            <rect width="23" height="1" x="1" y="18" rx=".5"/>
            <rect width="23" height="1" y="5" rx=".5"/>
        </g>
    </g>
</svg>
